{"title":"Fant4stic(2015)MPEG-4[DaScubaDude]","uid":14605936,"size":1001063283,"categoryP":"video","categoryS":"movies","magnet":"?xt=urn:btih:949e224894cf2af66e8ca54b6a49ff001c0823d3&amp;dn=Fant4stic%282015%29MPEG-4%5BDaScubaDude%5D&amp;tr=udp%3A%2F%2Ftracker.leechers-paradise.org%3A6969&amp;tr=udp%3A%2F%2Fzer0day.ch%3A1337&amp;tr=udp%3A%2F%2Fopen.demonii.com%3A1337&amp;tr=udp%3A%2F%2Ftracker.coppersurfer.tk%3A6969&amp;tr=udp%3A%2F%2Fexodus.desync.com%3A6969","seeders":1,"leechers":0,"uploader":"dascuba","files":1,"time":1463096950,"description":"Fantastic Four (2015)\r\nPG-13  |  100 min  |  Action, Adventure, Sci-Fi  |  7 August 2015 (USA)\r\n4.3 Your rating:   -/10   Ratings: 4.3/10 from 100,462 users   Metascore: 27/100\r\nReviews: 660 user | 360 critic | 40 from Metacritic.com\r\nFour young outsiders teleport to an alternate and dangerous universe which alters their physical form in shocking ways. The four must learn to harness their new abilities and work together to save Earth from a former friend turned enemy.\r\n\r\nDirector: Josh Trank\r\nWriters: Jeremy Slater (screenplay), Simon Kinberg (screenplay),\r\nStars: Miles Teller, Kate Mara, Michael B. Jordan\r\n\r\nGeneral\r\nComplete name                            : Fantastic4THE_FANTASTIC_FOUR_Title1.mp4\r\nFormat                                   : MPEG-4\r\nFormat profile                           : Base Media\r\nCodec ID                                 : isom (isom/iso2/avc1/mp41)\r\nFile size                                : 955 MiB\r\nDuration                                 : 1h 39mn\r\nOverall bit rate                         : 1 336 Kbps\r\nMovie name                               : THE_FANTASTIC_FOUR\r\nGenre                                    : Action\r\nWriting application                      : Lavf54.6.100\r\n\r\nVideo\r\nID                                       : 1\r\nFormat                                   : AVC\r\nFormat/Info                              : Advanced Video Codec\r\nFormat profile                           :   \r\nFormat settings, CABAC                   : No\r\nFormat settings, ReFrames                : 6 frames\r\nCodec ID                                 : avc1\r\nCodec ID/Info                            : Advanced Video Coding\r\nDuration                                 : 1h 39mn\r\nBit rate                                 : 1 201 Kbps\r\nWidth                                    : 720 pixels\r\nHeight                                   : 404 pixels\r\nDisplay aspect ratio                     : 16:9\r\nFrame rate mode                          : Constant\r\nFrame rate                               : 29.970 (30000/1001) fps\r\nColor space                              : YUV\r\nChroma subsampling                       : 4:2:0\r\nBit depth                                : 8 bits\r\nScan type                                : Progressive\r\nBits/(Pixel*Frame)                       : 0.138\r\nStream size                              : 858 MiB (90%)\r\n\r\nAudio\r\nID                                       : 2\r\nFormat                                   : AAC\r\nFormat/Info                              : Advanced Audio Codec\r\nFormat profile                           : LC\r\nCodec ID                                 : 40\r\nDuration                                 : 1h 39mn\r\nBit rate mode                            : Constant\r\nBit rate                                 : 128 Kbps\r\nChannel(s)                               : 2 channels\r\nChannel positions                        : Front: L R\r\nSampling rate                            : 44.1 KHz\r\nFrame rate                               : 43.066 fps (1024 spf)\r\nCompression mode                         : Lossy\r\nStream size                              : 91.5 MiB (10%)\r\nDefault                                  : Yes\r\nAlternate group                          : 1","torrent":{"xt":"urn:btih:949e224894cf2af66e8ca54b6a49ff001c0823d3","amp;dn":"Fant4stic%282015%29MPEG-4%5BDaScubaDude%5D","amp;tr":["udp%3A%2F%2Ftracker.leechers-paradise.org%3A6969","udp%3A%2F%2Fzer0day.ch%3A1337","udp%3A%2F%2Fopen.demonii.com%3A1337","udp%3A%2F%2Ftracker.coppersurfer.tk%3A6969","udp%3A%2F%2Fexodus.desync.com%3A6969"],"infoHash":"949e224894cf2af66e8ca54b6a49ff001c0823d3","infoHashBuffer":{"type":"Buffer","data":[148,158,34,72,148,207,42,246,110,140,165,75,106,73,255,0,28,8,35,211]},"announce":[],"urlList":[]}}